<svg xmlns="http://www.w3.org/2000/svg" width="73.701" height="44.816" viewBox="0 0 73.701 44.816">
  <g id="Grupo_56" data-name="Grupo 56" transform="translate(-331.872 -181.89)">
    <path id="Trazado_14" data-name="Trazado 14" d="M332.816,224.277v-25.8a1.436,1.436,0,0,1,1.436-1.436h6.284a1.436,1.436,0,0,1,1.436,1.436v25.8a1.436,1.436,0,0,1-1.436,1.436h-6.284a1.436,1.436,0,0,1-1.436-1.436" fill="#003c74"/>
    <path id="Trazado_15" data-name="Trazado 15" d="M364.9,208.91l10.4,15.935a.561.561,0,0,1-.47.868h-9.012a.561.561,0,0,1-.484-.277l-8.5-14.451h-.111v14.166a.561.561,0,0,1-.561.562h-8.033a.561.561,0,0,1-.562-.562V184.894a3,3,0,0,1,3-3h5.591a.561.561,0,0,1,.561.561v23.735h.111l8.326-10.867a.56.56,0,0,1,.446-.22h9.369a.561.561,0,0,1,.426.926l-10.46,12.213a.559.559,0,0,0-.044.672" fill="#003c74"/>
    <path id="Trazado_16" data-name="Trazado 16" d="M404.791,213.192H383.225a.661.661,0,0,0-.646.824,6.914,6.914,0,0,0,7,4.968,6.46,6.46,0,0,0,5.372-2.625.671.671,0,0,1,.512-.244h8.021a.667.667,0,0,1,.6.962c-2.677,5.412-7.588,9.326-13.773,9.612a16.276,16.276,0,0,1-16.9-14.944c-.705-9.412,6.592-17.694,16-17.694,9.378,0,16.163,7.5,16.163,16.713a12.76,12.76,0,0,1-.122,1.849.67.67,0,0,1-.66.579m-15.326-11.419a6.882,6.882,0,0,0-6.688,4.337.668.668,0,0,0,.622.9h12.132a.669.669,0,0,0,.623-.9,6.883,6.883,0,0,0-6.689-4.337" fill="#2a7ec3"/>
    <path id="Trazado_17" data-name="Trazado 17" d="M403.09,196.66a3.433,3.433,0,1,0-3.016-6.162l-2.64,1.419a1.355,1.355,0,0,0,.022,2.4,17.973,17.973,0,0,1,3.625,2.4,1.348,1.348,0,0,0,1.421.2Z" fill="#2a7ec3"/>
    <path id="Trazado_18" data-name="Trazado 18" d="M337.394,181.89a5.522,5.522,0,0,0-.469,11.025v2.474a.468.468,0,0,0,.278.428.456.456,0,0,0,.191.041.465.465,0,0,0,.313-.12c.174-.155,4.25-3.843,5.024-6.905.015-.057.028-.114.042-.171l.006-.026,0-.017a5.52,5.52,0,0,0-5.388-6.729" fill="#f5972a"/>
  </g>
</svg>
