<svg width="130" height="50" viewBox="0 0 130 50" fill="none" xmlns="http://www.w3.org/2000/svg">
<g clip-path="url(#clip0_157_482)">
<rect width="130" height="50" fill="white"/>
<path d="M23.6034 38.9638C23.2765 38.8943 22.973 38.8248 22.6461 38.7785C18.4432 38.1763 14.4037 37.0645 10.6911 34.98C9.80384 34.4936 8.96326 33.8219 8.26277 33.1038C7.02524 31.8531 7.07194 30.4865 8.26277 29.1663C9.1734 28.1472 10.3409 27.4523 11.5551 26.827C13.4464 25.8542 15.4311 25.1593 17.4625 24.5803C17.6259 24.5339 17.766 24.4876 17.9528 24.4413C17.1823 23.6075 16.4118 22.8431 15.6879 22.0093C14.5438 20.7122 13.4931 19.3688 12.7926 17.7707C12.5124 17.1453 12.3256 16.4736 12.2555 15.8019C12.1388 14.9218 12.6058 14.2732 13.423 13.8795C14.287 13.4857 15.2209 13.3931 16.1549 13.4394C19.5173 13.5784 22.6928 14.4354 25.7749 15.7787C29.4408 17.3769 30.4449 21.5461 28.5302 24.4645C28.5302 24.4876 28.5302 24.5339 28.4835 24.6034C28.6469 24.7192 28.8104 24.835 28.9972 24.974C31.5656 26.8965 32.6864 30.0928 31.8692 33.1733C31.052 36.2307 28.4368 38.4774 25.1679 38.8943C25.0278 38.8943 24.911 38.987 24.7709 39.0101H23.6501L23.6034 38.9638ZM28.4368 24.4876C27.713 24.2097 27.0358 23.8622 26.312 23.6538C24.6308 23.1442 22.9263 23.399 21.2218 23.7001C20.1711 23.8854 19.1203 24.1402 18.0229 24.3718C21.2918 27.9619 25.8917 28.0082 28.4135 24.4876H28.4368Z" fill="#33A938"/>
<path d="M79.2451 22.1713C80.506 22.1018 81.7201 21.9165 82.9343 22.0092C85.0825 22.1713 86.4368 23.3989 87.0438 25.414C87.5809 27.1743 87.5809 28.9578 87.0438 30.7181C86.3901 32.8953 84.7089 34.2387 82.4206 34.4008C80.5994 34.5398 78.8014 34.3776 77.0736 33.7059C76.6533 33.5438 76.5132 33.3122 76.5132 32.8721C76.5132 28.3787 76.5132 23.8853 76.5132 19.3919C76.5132 17.9559 77.4705 17.1915 78.8948 17.5158C79.0349 17.5389 79.1984 17.84 79.1984 18.0253C79.2217 19.2761 79.2217 20.5037 79.2217 21.7544C79.2217 21.9165 79.2217 22.0787 79.2217 22.1482L79.2451 22.1713ZM79.2217 28.2861C79.2217 29.3515 79.2217 30.4401 79.2217 31.5056C79.2217 31.853 79.3151 32.0151 79.6654 32.0383C80.4126 32.0846 81.1597 32.2236 81.8836 32.1773C83.1211 32.1078 83.9617 31.4361 84.3353 30.2548C84.7789 28.8651 84.7556 27.4754 84.3119 26.0857C83.915 24.9044 82.9577 24.2327 81.6734 24.2559C80.973 24.2559 80.2958 24.418 79.6187 24.4875C79.2918 24.5338 79.2217 24.6728 79.2217 24.9971C79.2217 26.0857 79.2217 27.1743 79.2217 28.2629V28.2861Z" fill="#37AA39"/>
<path d="M72.2872 26.5722C72.474 25.0898 71.9369 24.3023 70.5126 24.256C69.3218 24.2328 68.0843 24.4413 66.8934 24.6266C66.4498 24.696 66.2163 24.6497 66.1463 24.1865C66.1229 23.9549 66.0528 23.7232 65.9828 23.4916C65.796 22.681 65.796 22.681 66.5899 22.4493C68.2477 21.9861 69.9522 21.824 71.6801 22.0324C73.7582 22.2872 74.949 23.538 75.0191 25.692C75.0891 28.1008 75.0424 30.5328 75.0424 32.9417C75.0424 33.3818 74.7856 33.6365 74.3653 33.7987C72.7308 34.424 71.0263 34.5398 69.3218 34.4704C68.7614 34.4704 68.1777 34.3777 67.6173 34.2387C64.9788 33.6365 64.3483 31.6446 64.862 29.5369C65.2823 27.7302 66.6599 26.9427 68.3411 26.688C69.4152 26.5258 70.536 26.5953 71.6334 26.5722C71.8435 26.5722 72.077 26.5722 72.2638 26.5722H72.2872ZM72.3105 28.6799C71.1898 28.6799 70.0923 28.6104 69.0182 28.6799C68.0376 28.7725 67.4772 29.5137 67.4538 30.4865C67.4538 31.4362 67.8975 31.992 68.9482 32.2005C69.9756 32.409 71.003 32.27 72.007 31.992C72.1237 31.9689 72.2872 31.7604 72.2872 31.6214C72.2872 30.6255 72.2872 29.6527 72.2872 28.6567L72.3105 28.6799Z" fill="#37AA39"/>
<path d="M55.0784 26.5722C55.2185 25.0203 54.7048 24.2792 53.2338 24.2328C52.0663 24.1865 50.8755 24.4181 49.708 24.6034C49.241 24.6729 49.0075 24.6729 48.9374 24.1634C48.8907 23.8159 48.7273 23.4917 48.7039 23.1442C48.7039 22.9589 48.8207 22.6578 48.9608 22.6115C51.0389 21.9398 53.1637 21.685 55.3119 22.2409C56.7829 22.6347 57.5301 23.7001 57.7636 25.1593C57.8103 25.4141 57.8103 25.692 57.8336 25.97C57.8336 28.263 57.8336 30.5329 57.8336 32.8259C57.8336 33.3123 57.6702 33.6366 57.2032 33.7987C54.9149 34.6094 52.5566 34.7715 50.1983 34.2156C48.4938 33.7987 47.6532 32.7564 47.5131 31.1582C47.373 29.3285 48.0735 27.8924 49.6146 27.2207C50.3618 26.8965 51.2257 26.7112 52.0663 26.6417C53.047 26.549 54.051 26.6417 55.1017 26.6417L55.0784 26.5722ZM55.1017 28.6799C53.9809 28.6799 52.9302 28.6104 51.8795 28.6799C50.8988 28.7494 50.2917 29.4906 50.245 30.4171C50.1983 31.4362 50.642 31.9689 51.716 32.2005C52.7668 32.409 53.8175 32.27 54.8215 31.9921C54.9383 31.9689 55.0784 31.8068 55.0784 31.691C55.0784 30.6718 55.0784 29.6527 55.0784 28.6336L55.1017 28.6799Z" fill="#37AA39"/>
<path d="M118.893 26.5722C119.033 25.0203 118.519 24.2792 117.025 24.2328C115.857 24.2097 114.666 24.4181 113.499 24.6034C113.032 24.6729 112.799 24.6729 112.728 24.1634C112.682 23.8159 112.518 23.4917 112.495 23.1442C112.495 22.9589 112.635 22.6578 112.775 22.6115C114.83 21.9398 116.955 21.685 119.08 22.2409C120.667 22.6578 121.578 23.9549 121.578 25.5531C121.578 28.0082 121.578 30.4402 121.578 32.8954C121.578 33.3586 121.391 33.6134 120.971 33.7755C118.683 34.5862 116.324 34.7483 113.966 34.1925C112.261 33.7755 111.421 32.7101 111.281 31.1119C111.141 29.2358 111.888 27.8693 113.429 27.1281C114.363 26.688 115.344 26.549 116.348 26.5722C117.165 26.5722 118.005 26.5722 118.869 26.5722H118.893ZM118.893 28.7031C117.749 28.7031 116.651 28.6336 115.554 28.7262C114.596 28.8189 114.036 29.6064 114.036 30.556C114.036 31.5057 114.48 32.0152 115.53 32.2237C116.558 32.4322 117.585 32.2932 118.589 32.0384C118.706 32.0152 118.869 31.8531 118.869 31.7605C118.869 30.7182 118.869 29.6991 118.869 28.7031H118.893Z" fill="#37AA39"/>
<path d="M91.1535 29.0273C90.99 30.8802 92.1809 32.1773 94.1189 32.1541C95.0062 32.1541 95.9168 31.8993 96.7807 31.6446C97.2711 31.5056 97.5046 31.5519 97.668 32.0152C97.7614 32.2468 97.8782 32.4784 97.9949 32.6868C98.3218 33.3585 98.2985 33.428 97.6447 33.7291C95.5666 34.6788 93.4184 34.7714 91.2702 33.9839C89.9627 33.4975 89.1221 32.5247 88.7251 31.2045C88.1647 29.3979 88.118 27.5681 88.6784 25.7614C89.5424 23.0747 91.7372 21.685 94.5625 21.9861C95.5432 22.0787 96.5005 22.3103 97.3178 22.9125C98.6487 23.9317 99.4426 26.3173 98.9522 27.9155C98.7421 28.5872 98.2751 28.9809 97.4812 29.0041C95.5666 29.0273 93.6519 29.0041 91.7372 29.0273C91.5504 29.0273 91.3403 29.0273 91.1535 29.0273ZM96.4538 27.0585C96.4772 25.2056 95.7067 24.2559 94.1189 24.1864C92.5545 24.1169 91.3403 25.275 91.2002 27.0585H96.4538Z" fill="#37AA39"/>
<path d="M39.8079 24.835C41.3257 24.835 42.7733 24.835 44.221 24.835C45.0149 24.835 45.8088 24.835 46.6027 24.835C46.9996 24.835 47.2097 24.974 47.1864 25.3909C47.1864 25.8078 47.1864 26.2247 47.1864 26.6417C47.1864 27.1049 46.9529 27.1975 46.556 27.1975C44.4778 27.1975 42.4231 27.1975 40.345 27.1975C40.1815 27.1975 40.0181 27.1975 39.7846 27.1975C39.7846 27.406 39.7846 27.5913 39.7846 27.7766C39.7846 29.3284 39.7846 30.8571 39.7846 32.409C39.7846 33.8218 38.6872 34.6325 37.3095 34.2156C37.1694 34.1693 37.006 33.8682 37.006 33.6829C36.9826 32.5016 37.006 31.3435 37.006 30.1623C37.006 27.5681 37.006 24.9508 37.006 22.3567C37.006 22.0324 37.006 21.685 37.076 21.3607C37.4029 19.4383 38.6638 18.3034 40.6719 18.2571C42.9835 18.2107 45.2717 18.257 47.5833 18.2339C47.9569 18.2339 48.097 18.4192 48.097 18.7666C48.097 19.1604 48.097 19.5773 48.097 19.971C48.097 20.6427 48.027 20.7354 47.3498 20.7354C45.4585 20.7354 43.5439 20.7354 41.6526 20.7354C41.4891 20.7354 41.3023 20.7354 41.1389 20.7354C40.2983 20.7817 39.878 21.1523 39.8313 21.9861C39.7846 22.9126 39.8313 23.8622 39.8313 24.8582L39.8079 24.835Z" fill="#33A938"/>
<path d="M108.783 24.6496C108.783 26.7805 108.783 28.9114 108.783 31.0423C108.783 32.0846 108.993 32.2699 110.02 32.1541C110.487 32.0923 110.752 32.2931 110.814 32.7563C110.837 33.0111 110.861 33.289 110.931 33.5438C111.048 33.9839 110.837 34.2155 110.44 34.2387C109.53 34.3081 108.596 34.4471 107.662 34.3776C106.751 34.3081 106.261 33.6828 106.121 32.7563C106.074 32.4089 106.027 32.0614 106.027 31.714C106.027 27.6607 106.027 23.5842 106.027 19.5309C106.027 18.0022 106.891 17.2842 108.409 17.5158C108.759 17.5621 108.783 17.7937 108.783 18.0717C108.783 19.3919 108.783 20.6889 108.783 22.0092C108.783 22.8893 108.783 23.7926 108.783 24.6728V24.6496Z" fill="#37AA39"/>
<path d="M102.875 24.696C102.875 26.7111 102.875 28.7262 102.875 30.7412C102.875 30.9497 102.875 31.135 102.875 31.3435C102.922 32.0383 103.132 32.2236 103.856 32.1773C104.494 32.1464 104.86 32.4475 104.953 33.0806C105.117 34.0997 105.046 34.2387 103.996 34.3777C103.319 34.4703 102.618 34.4703 101.918 34.4008C100.984 34.3082 100.423 33.7523 100.236 32.849C100.166 32.5015 100.143 32.1541 100.143 31.8067C100.143 27.6839 100.143 23.5611 100.143 19.4151C100.143 17.979 101.124 17.1915 102.571 17.5158C102.898 17.5853 102.875 17.8169 102.875 18.0485C102.875 19.971 102.875 21.9166 102.875 23.839C102.875 24.1169 102.875 24.418 102.875 24.696Z" fill="#37AA39"/>
<path d="M62.2469 24.7657C62.2469 26.8965 62.2469 29.0274 62.2469 31.1583C62.2469 32.0616 62.5038 32.2701 63.4144 32.1775C63.9437 32.1157 64.2317 32.3396 64.2784 32.8492C64.2784 32.9418 64.2784 33.0576 64.3017 33.1503C64.4418 34.1462 64.3951 34.2389 63.3911 34.3778C62.6906 34.4705 61.9667 34.4936 61.2663 34.4242C60.3089 34.3547 59.7719 33.7988 59.5851 32.8723C59.515 32.4786 59.4917 32.0616 59.4917 31.6679C59.4917 27.6146 59.4917 23.5844 59.4917 19.5311C59.4917 17.9792 60.3323 17.2844 61.8734 17.516C62.2236 17.5623 62.2469 17.7939 62.2469 18.0719C62.2469 19.4153 62.2469 20.7586 62.2469 22.102C62.2469 22.9822 62.2469 23.8855 62.2469 24.7657Z" fill="#37AA39"/>
</g>
<defs>
<clipPath id="clip0_157_482">
<rect width="130" height="50" fill="white"/>
</clipPath>
</defs>
</svg>
